<?xml version="1.0" encoding="UTF-8" standalone="no"?>
<svg
   height="48"
   width="48"
   version="1.1"
   id="svg28"
   sodipodi:docname="computer_FILL0_wght400_GRAD0_opsz48.svg"
   inkscape:version="1.2 (dc2aeda, 2022-05-15)"
   xmlns:inkscape="http://www.inkscape.org/namespaces/inkscape"
   xmlns:sodipodi="http://sodipodi.sourceforge.net/DTD/sodipodi-0.dtd"
   xmlns="http://www.w3.org/2000/svg"
   xmlns:svg="http://www.w3.org/2000/svg">
  <defs
     id="defs32" />
  <sodipodi:namedview
     id="namedview30"
     pagecolor="#ffffff"
     bordercolor="#000000"
     borderopacity="0.25"
     inkscape:showpageshadow="2"
     inkscape:pageopacity="0.0"
     inkscape:pagecheckerboard="0"
     inkscape:deskcolor="#d1d1d1"
     showgrid="false"
     inkscape:zoom="11.25"
     inkscape:cx="24"
     inkscape:cy="24"
     inkscape:window-width="1366"
     inkscape:window-height="719"
     inkscape:window-x="0"
     inkscape:window-y="25"
     inkscape:window-maximized="1"
     inkscape:current-layer="svg28" />
  <path
     d="M7 36Q5.8 36 4.9 35.1Q4 34.2 4 33V9Q4 7.8 4.9 6.9Q5.8 6 7 6H41Q42.2 6 43.1 6.9Q44 7.8 44 9V33Q44 34.2 43.1 35.1Q42.2 36 41 36ZM7 33H41Q41 33 41 33Q41 33 41 33V9Q41 9 41 9Q41 9 41 9H7Q7 9 7 9Q7 9 7 9V33Q7 33 7 33Q7 33 7 33ZM3.5 42Q2.85 42 2.425 41.575Q2 41.15 2 40.5Q2 39.85 2.425 39.425Q2.85 39 3.5 39H44.5Q45.15 39 45.575 39.425Q46 39.85 46 40.5Q46 41.15 45.575 41.575Q45.15 42 44.5 42ZM7 33Q7 33 7 33Q7 33 7 33V9Q7 9 7 9Q7 9 7 9Q7 9 7 9Q7 9 7 9V33Q7 33 7 33Q7 33 7 33Z"
     id="path26" />
  <path
     style="fill:#243a73;stroke-width:0.0888889;fill-opacity:1"
     d="M 6.5587343,35.909248 C 5.5852663,35.743429 4.5667358,34.889828 4.2222222,33.951083 4.0475978,33.475259 4.0444444,33.245935 4.0444444,21.022222 c 0,-9.780025 0.024075,-12.5236647 0.1124449,-12.8144515 C 4.3167115,7.6818652 4.7890717,7.0311708 5.2843636,6.6546314 6.152605,5.9945618 4.6230907,6.0444444 23.994074,6.0444444 c 15.125218,0 17.453099,0.017222 17.834237,0.1319401 0.846305,0.254728 1.752549,1.1684327 2.0148,2.031386 0.08837,0.2907868 0.112445,3.0344265 0.112445,12.8144515 0,14.388712 0.09228,12.991517 -0.925102,14.007334 -1.033024,1.03144 1.11252,0.924123 -18.763787,0.938536 -9.508889,0.0069 -17.4774588,-0.01958 -17.7079327,-0.05884 z M 41.066667,21.022222 V 8.9777778 H 24 6.9333333 V 21.022222 33.066667 H 24 41.066667 Z"
     id="path1761" />
  <path
     style="fill:#243a73;fill-opacity:1;stroke-width:0.0888889"
     d="M 2.8604113,41.806066 C 1.8108242,41.28885 1.7992791,39.74756 2.8410569,39.222222 l 0.3966124,-0.2 H 24 44.762331 l 0.396246,0.2 c 1.059563,0.5348 1.039484,2.078251 -0.03366,2.587491 -0.282228,0.133926 -2.009354,0.145677 -21.138351,0.143819 C 4.8814085,41.951675 3.1311028,41.939458 2.8604113,41.806066 Z"
     id="path1832" />
</svg>
