<?xml version="1.0" encoding="UTF-8" standalone="no"?>
<svg
   height="48"
   width="48"
   version="1.1"
   id="svg2961"
   sodipodi:docname="edit_FILL0_wght400_GRAD0_opsz48.svg"
   inkscape:version="1.2 (dc2aeda, 2022-05-15)"
   xmlns:inkscape="http://www.inkscape.org/namespaces/inkscape"
   xmlns:sodipodi="http://sodipodi.sourceforge.net/DTD/sodipodi-0.dtd"
   xmlns="http://www.w3.org/2000/svg"
   xmlns:svg="http://www.w3.org/2000/svg">
  <defs
     id="defs2965" />
  <sodipodi:namedview
     id="namedview2963"
     pagecolor="#ffffff"
     bordercolor="#000000"
     borderopacity="0.25"
     inkscape:showpageshadow="2"
     inkscape:pageopacity="0.0"
     inkscape:pagecheckerboard="0"
     inkscape:deskcolor="#d1d1d1"
     showgrid="false"
     inkscape:zoom="11.25"
     inkscape:cx="24"
     inkscape:cy="24"
     inkscape:window-width="1366"
     inkscape:window-height="719"
     inkscape:window-x="0"
     inkscape:window-y="25"
     inkscape:window-maximized="1"
     inkscape:current-layer="svg2961" />
  <path
     d="M9 39H11.2L35.45 14.75L34.35 13.65L33.25 12.55L9 36.8ZM6 42V35.6L35.4 6.2Q36.25 5.35 37.525 5.375Q38.8 5.4 39.65 6.25L41.8 8.4Q42.65 9.25 42.65 10.5Q42.65 11.75 41.8 12.6L12.4 42ZM39.5 10.45 37.45 8.4ZM35.45 14.75 34.35 13.65 33.25 12.55 35.45 14.75Z"
     id="path2959" />
  <path
     style="fill:#243a73;fill-opacity:1;stroke-width:0.0888889"
     d="M 6.0444444,38.776895 V 35.598234 L 20.911111,20.745649 C 33.037514,8.6307329 35.859699,5.8543306 36.222222,5.6829248 c 0.356143,-0.1683891 0.594558,-0.2107471 1.2,-0.2131987 1.22703,-0.00497 1.399286,0.094324 3.141528,1.8108463 1.845226,1.8179855 1.966408,2.0155149 1.968267,3.2083166 0.0011,0.70845 -0.03286,0.91602 -0.210877,1.288889 -0.172112,0.360491 -3.017975,3.252694 -15.065784,15.311111 L 12.401766,41.955556 H 9.2231052 6.0444444 Z M 23.377621,26.889045 35.510553,14.755869 34.377342,13.622658 33.244131,12.489447 21.110955,24.622379 8.9777778,36.755311 v 1.133456 1.133455 h 1.1334552 1.133456 z"
     id="path3654" />
</svg>
