<?xml version="1.0" encoding="UTF-8" standalone="no"?>
<svg
   height="48"
   width="48"
   version="1.1"
   id="svg6644"
   sodipodi:docname="person_FILL0_wght400_GRAD0_opsz48.svg"
   inkscape:version="1.2 (dc2aeda, 2022-05-15)"
   xmlns:inkscape="http://www.inkscape.org/namespaces/inkscape"
   xmlns:sodipodi="http://sodipodi.sourceforge.net/DTD/sodipodi-0.dtd"
   xmlns="http://www.w3.org/2000/svg"
   xmlns:svg="http://www.w3.org/2000/svg">
  <defs
     id="defs6648" />
  <sodipodi:namedview
     id="namedview6646"
     pagecolor="#ffffff"
     bordercolor="#000000"
     borderopacity="0.25"
     inkscape:showpageshadow="2"
     inkscape:pageopacity="0.0"
     inkscape:pagecheckerboard="0"
     inkscape:deskcolor="#d1d1d1"
     showgrid="false"
     inkscape:zoom="4"
     inkscape:cx="29"
     inkscape:cy="9.75"
     inkscape:window-width="1366"
     inkscape:window-height="719"
     inkscape:window-x="0"
     inkscape:window-y="25"
     inkscape:window-maximized="1"
     inkscape:current-layer="svg6644" />
  <path
     d="M24 23.95Q20.7 23.95 18.6 21.85Q16.5 19.75 16.5 16.45Q16.5 13.15 18.6 11.05Q20.7 8.95 24 8.95Q27.3 8.95 29.4 11.05Q31.5 13.15 31.5 16.45Q31.5 19.75 29.4 21.85Q27.3 23.95 24 23.95ZM8 40V35.3Q8 33.4 8.95 32.05Q9.9 30.7 11.4 30Q14.75 28.5 17.825 27.75Q20.9 27 24 27Q27.1 27 30.15 27.775Q33.2 28.55 36.55 30Q38.1 30.7 39.05 32.05Q40 33.4 40 35.3V40ZM11 37H37V35.3Q37 34.5 36.525 33.775Q36.05 33.05 35.35 32.7Q32.15 31.15 29.5 30.575Q26.85 30 24 30Q21.15 30 18.45 30.575Q15.75 31.15 12.6 32.7Q11.9 33.05 11.45 33.775Q11 34.5 11 35.3ZM24 20.95Q25.95 20.95 27.225 19.675Q28.5 18.4 28.5 16.45Q28.5 14.5 27.225 13.225Q25.95 11.95 24 11.95Q22.05 11.95 20.775 13.225Q19.5 14.5 19.5 16.45Q19.5 18.4 20.775 19.675Q22.05 20.95 24 20.95ZM24 16.45Q24 16.45 24 16.45Q24 16.45 24 16.45Q24 16.45 24 16.45Q24 16.45 24 16.45Q24 16.45 24 16.45Q24 16.45 24 16.45Q24 16.45 24 16.45Q24 16.45 24 16.45ZM24 37Q24 37 24 37Q24 37 24 37Q24 37 24 37Q24 37 24 37Q24 37 24 37Q24 37 24 37Q24 37 24 37Q24 37 24 37Z"
     id="path6642" />
  <path
     style="fill:#243a73;stroke-width:0.0888889"
     d="m 8.0024085,37.8 c 0.0039,-3.565662 0.1528359,-4.419817 0.9885023,-5.669242 0.7972274,-1.191953 1.6385932,-1.777495 3.8720302,-2.694705 2.232476,-0.916815 4.923688,-1.699976 7.04817,-2.051064 4.672506,-0.772169 8.983403,-0.247828 14.311111,1.740685 2.936015,1.095838 3.923638,1.714448 4.779082,2.993445 0.844164,1.26213 0.992375,2.107236 0.996287,5.680881 L 40,40 H 24 8 Z M 37.050097,35.844444 c -0.04308,-1.432923 -0.162932,-1.791037 -0.842608,-2.517666 -0.613521,-0.655904 -2.189746,-1.408275 -4.651933,-2.220483 -2.442021,-0.805556 -4.545905,-1.108556 -7.644445,-1.100947 -4.101283,0.01007 -6.787077,0.585867 -10.488889,2.248672 -1.283017,0.576314 -1.81837,1.028058 -2.202304,1.858354 -0.2107,0.455662 -0.239529,0.639745 -0.271258,1.73207 l -0.0355,1.222223 H 24 37.086841 Z"
     id="path7130" />
  <path
     style="fill:#243a73;stroke-width:0.0888889"
     d="m 22.519251,23.785611 c -2.909746,-0.555474 -4.972647,-2.446669 -5.729147,-5.252278 -0.233541,-0.866129 -0.282972,-2.957364 -0.09034,-3.822222 0.670338,-3.009705 2.942152,-5.1490531 5.949218,-5.6023295 1.083795,-0.1633683 1.618251,-0.1633683 2.702046,0 2.900353,0.4371908 5.084833,2.3929475 5.860379,5.2467745 0.278762,1.025776 0.278762,3.152001 0,4.177777 -0.704236,2.591423 -2.558174,4.442956 -5.122513,5.115868 -0.9166,0.240526 -2.67271,0.307634 -3.569638,0.13641 z m 2.721575,-2.946405 c 1.953649,-0.444348 3.27187,-2.190221 3.287383,-4.353864 0.01455,-2.029584 -1.076408,-3.65414 -2.9061,-4.327495 -0.737928,-0.271568 -2.50629,-0.271568 -3.244218,0 -1.829692,0.673355 -2.920652,2.297911 -2.9061,4.327495 0.01239,1.728497 0.784624,3.10551 2.210517,3.94171 0.881344,0.516854 2.350201,0.68698 3.558518,0.412154 z"
     id="path7132" />
</svg>
